<svg width="40" height="40" viewBox="0 0 40 40" fill="none" xmlns="http://www.w3.org/2000/svg">
<g filter="url(#filter0_b_95_655)">
<circle cx="20" cy="20" r="20" fill="url(#paint0_linear_95_655)" fill-opacity="0.4"/>
</g>
<path fill-rule="evenodd" clip-rule="evenodd" d="M22.75 11.25V11C22.75 10.586 23.086 10.25 23.5 10.25C23.914 10.25 24.25 10.586 24.25 11V11.25H25C26.26 11.25 27.468 11.75 28.359 12.641C29.25 13.532 29.75 14.74 29.75 16V25C29.75 26.26 29.25 27.468 28.359 28.359C27.468 29.25 26.26 29.75 25 29.75H15C13.74 29.75 12.532 29.25 11.641 28.359C10.75 27.468 10.25 26.26 10.25 25C10.25 22.287 10.25 18.713 10.25 16C10.25 14.74 10.75 13.532 11.641 12.641C12.532 11.75 13.74 11.25 15 11.25H15.75V11C15.75 10.586 16.086 10.25 16.5 10.25C16.914 10.25 17.25 10.586 17.25 11V11.25H22.75ZM28.25 18.25H11.75V25C11.75 25.862 12.092 26.689 12.702 27.298C13.311 27.908 14.138 28.25 15 28.25H25C25.862 28.25 26.689 27.908 27.298 27.298C27.908 26.689 28.25 25.862 28.25 25V18.25ZM15.75 12.75H15C14.138 12.75 13.311 13.092 12.702 13.702C12.092 14.311 11.75 15.138 11.75 16V16.75H28.25V16C28.25 15.138 27.908 14.311 27.298 13.702C26.689 13.092 25.862 12.75 25 12.75H24.25V13C24.25 13.414 23.914 13.75 23.5 13.75C23.086 13.75 22.75 13.414 22.75 13V12.75H17.25V13C17.25 13.414 16.914 13.75 16.5 13.75C16.086 13.75 15.75 13.414 15.75 13V12.75Z" fill="white"/>
<path d="M14.75 22C15.1642 22 15.5 21.6642 15.5 21.25C15.5 20.8358 15.1642 20.5 14.75 20.5C14.3358 20.5 14 20.8358 14 21.25C14 21.6642 14.3358 22 14.75 22Z" fill="white"/>
<path d="M14.75 25.5C15.1642 25.5 15.5 25.1642 15.5 24.75C15.5 24.3358 15.1642 24 14.75 24C14.3358 24 14 24.3358 14 24.75C14 25.1642 14.3358 25.5 14.75 25.5Z" fill="white"/>
<path d="M18.25 22C18.6642 22 19 21.6642 19 21.25C19 20.8358 18.6642 20.5 18.25 20.5C17.8358 20.5 17.5 20.8358 17.5 21.25C17.5 21.6642 17.8358 22 18.25 22Z" fill="white"/>
<path d="M18.25 25.5C18.6642 25.5 19 25.1642 19 24.75C19 24.3358 18.6642 24 18.25 24C17.8358 24 17.5 24.3358 17.5 24.75C17.5 25.1642 17.8358 25.5 18.25 25.5Z" fill="white"/>
<path d="M21.75 22C22.1642 22 22.5 21.6642 22.5 21.25C22.5 20.8358 22.1642 20.5 21.75 20.5C21.3358 20.5 21 20.8358 21 21.25C21 21.6642 21.3358 22 21.75 22Z" fill="white"/>
<path d="M21.75 25.5C22.1642 25.5 22.5 25.1642 22.5 24.75C22.5 24.3358 22.1642 24 21.75 24C21.3358 24 21 24.3358 21 24.75C21 25.1642 21.3358 25.5 21.75 25.5Z" fill="white"/>
<path d="M25.25 22C25.6642 22 26 21.6642 26 21.25C26 20.8358 25.6642 20.5 25.25 20.5C24.8358 20.5 24.5 20.8358 24.5 21.25C24.5 21.6642 24.8358 22 25.25 22Z" fill="white"/>
<path d="M25.25 25.5C25.6642 25.5 26 25.1642 26 24.75C26 24.3358 25.6642 24 25.25 24C24.8358 24 24.5 24.3358 24.5 24.75C24.5 25.1642 24.8358 25.5 25.25 25.5Z" fill="white"/>
<defs>
<filter id="filter0_b_95_655" x="-10" y="-10" width="60" height="60" filterUnits="userSpaceOnUse" color-interpolation-filters="sRGB">
<feFlood flood-opacity="0" result="BackgroundImageFix"/>
<feGaussianBlur in="BackgroundImageFix" stdDeviation="5"/>
<feComposite in2="SourceAlpha" operator="in" result="effect1_backgroundBlur_95_655"/>
<feBlend mode="normal" in="SourceGraphic" in2="effect1_backgroundBlur_95_655" result="shape"/>
</filter>
<linearGradient id="paint0_linear_95_655" x1="20" y1="0" x2="20" y2="40" gradientUnits="userSpaceOnUse">
<stop stop-color="#FBF8FF"/>
<stop offset="1" stop-color="#D8BAFF"/>
</linearGradient>
</defs>
</svg>
